<?xml version="1.0" encoding="UTF-8"?>
<svg id="Layer_2" data-name="Layer 2" xmlns="http://www.w3.org/2000/svg" viewBox="0 0 23.33 31.67">
  <defs>
    <style>
      .cls-1 {
        fill: #ea4435;
      }

      .cls-2 {
        fill: #547dbf;
      }

      .cls-3 {
        fill: #f2b41b;
      }

      .cls-4 {
        fill: none;
      }

      .cls-5 {
        fill: #34a851;
      }
    </style>
  </defs>
  <g id="Layer_1-2" data-name="Layer 1">
    <g>
      <path class="cls-4" d="M7.27,25.44c-.14-.05-.27-.12-.41-.18,.14,.06,.27,.12,.41,.18Z"/>
      <path class="cls-4" d="M18.08,24.4c.72-.44,1.29-.87,1.58-1.19,.87-.96,3.73-3.37,3.67-8.46,0,2.94-.98,5.49-2.94,7.67-.71,.78-1.48,1.44-2.31,1.99Z"/>
      <path class="cls-4" d="M2.94,22.42c-.43-.48-.81-.98-1.14-1.49,.5,.8,1.13,1.58,1.94,2.28,.03,.02,.05,.04,.08,.06-.2-.18-.4-.37-.6-.57-.09-.1-.19-.18-.28-.28Z"/>
      <path class="cls-4" d="M15.82,25.53c-.87,.32-1.79,.54-2.76,.65,.86-.02,1.83-.28,2.76-.65Z"/>
      <path class="cls-4" d="M9.85,26.11c-.87-.13-1.7-.33-2.48-.63,.88,.35,1.7,.54,2.48,.63Z"/>
      <path class="cls-4" d="M.03,15.42C.02,15.2,0,14.98,0,14.75,0,14.75,0,15,.03,15.42Z"/>
      <path class="cls-2" d="M14.83,1.3c-.87-.86-1.93-1.3-3.17-1.3s-2.3,.43-3.17,1.3c-.87,.86-1.3,1.91-1.3,3.15V14.75c0,1.28,.43,2.37,1.29,3.27s1.92,1.34,3.18,1.34,2.32-.45,3.18-1.34,1.29-1.99,1.29-3.27V4.44c0-1.23-.44-2.28-1.31-3.15Z"/>
      <path class="cls-1" d="M20.39,22.42c1.96-2.18,2.94-4.73,2.94-7.67h-2.78c0,2.45-.87,4.53-2.6,6.22s-3.83,2.53-6.29,2.53-4.55-.84-6.28-2.53c-.08-.08-.14-.16-.22-.23l-1.94,1.97c.19,.2,.39,.39,.6,.57,1.08,.92,2.09,1.55,3.04,1.99,.14,.06,.27,.12,.41,.18,.04,.02,.07,.03,.11,.04,.78,.3,1.61,.5,2.48,.63,1.18,.15,2.24,.09,3.2,.07,.98-.11,1.89-.33,2.76-.65,.82-.32,1.6-.73,2.26-1.13,.83-.54,1.6-1.2,2.31-1.99Z"/>
      <path class="cls-1" d="M7.38,25.48s-.07-.03-.11-.04c.04,.01,.07,.03,.11,.04Z"/>
      <path class="cls-5" d="M9.85,26.11c.14,.02,.28,.05,.42,.07v5.49h2.78v-5.49c-.96,.02-2.03,.08-3.2-.07Z"/>
      <path class="cls-1" d="M6.86,25.26c-.95-.44-1.97-1.07-3.04-1.99,.92,.84,1.94,1.5,3.04,1.99Z"/>
      <path class="cls-1" d="M15.82,25.53c.8-.29,1.56-.66,2.26-1.13-.66,.4-1.45,.81-2.26,1.13Z"/>
      <path class="cls-3" d="M1.8,20.93C.45,18.77,.11,16.5,.03,15.42c.11,2.02,.7,3.86,1.77,5.51Z"/>
      <path class="cls-3" d="M3.22,22.7l1.94-1.97c-1.58-1.65-2.38-3.64-2.38-5.98H0c0,.23,.02,.45,.03,.67,.08,1.09,.42,3.35,1.77,5.51,.34,.51,.71,1.01,1.14,1.49,.09,.1,.19,.19,.28,.28Z"/>
    </g>
  </g>
</svg>