<svg width="2550" height="151" viewBox="0 0 2550 151" fill="none" xmlns="http://www.w3.org/2000/svg">
<path d="M94 3.6652C5.99997 -26.2811 0 150.245 0 150.245H956C956 150.245 904.5 49.8979 862.5 55.1518C820.5 60.4057 807 95.6056 731 78.7936C655 61.9817 665.5 26.3151 592 26.3151C518.5 26.3151 543.5 72.548 479.5 67.2942C415.5 62.0405 396.5 3.13966 339.5 13.6473C282.5 24.155 325 81.4205 227 66.1847C129 50.9489 182 33.6115 94 3.6652Z" fill="#4B9EFF"/>
<path d="M1114 3.6652C1026 -26.2811 1020 150.245 1020 150.245H1976C1976 150.245 1924.5 49.8979 1882.5 55.1518C1840.5 60.4057 1827 95.6056 1751 78.7936C1675 61.9817 1685.5 26.3151 1612 26.3151C1538.5 26.3151 1563.5 72.548 1499.5 67.2942C1435.5 62.0405 1416.5 3.13966 1359.5 13.6473C1302.5 24.155 1345 81.4205 1247 66.1847C1149 50.9489 1202 33.6115 1114 3.6652Z" fill="#4B9EFF"/>
<path d="M668 3.6652C580 -26.2811 574 150.245 574 150.245H1530C1530 150.245 1478.5 49.8979 1436.5 55.1518C1394.5 60.4057 1381 95.6056 1305 78.7936C1229 61.9817 1239.5 26.3151 1166 26.3151C1092.5 26.3151 1117.5 72.548 1053.5 67.2942C989.5 62.0405 970.5 3.13966 913.5 13.6473C856.5 24.155 899 81.4205 801 66.1847C703 50.9489 756 33.6115 668 3.6652Z" fill="#4B9EFF"/>
<path d="M1688 3.6652C1600 -26.2811 1594 150.245 1594 150.245H2550C2550 150.245 2498.5 49.8979 2456.5 55.1518C2414.5 60.4057 2401 95.6056 2325 78.7936C2249 61.9817 2259.5 26.3151 2186 26.3151C2112.5 26.3151 2137.5 72.548 2073.5 67.2942C2009.5 62.0405 1990.5 3.13966 1933.5 13.6473C1876.5 24.155 1919 81.4205 1821 66.1847C1723 50.9489 1776 33.6115 1688 3.6652Z" fill="#4B9EFF"/>
</svg>
