<svg width="2550" height="150" viewBox="0 0 2550 150" fill="none" xmlns="http://www.w3.org/2000/svg">
<path d="M94 3.42068C5.99997 -26.5256 0 150 0 150H956C956 150 904.5 49.6534 862.5 54.9073C820.5 60.1612 807 95.3611 731 78.5491C655 61.7372 665.5 26.0706 592 26.0706C518.5 26.0706 543.5 72.3034 479.5 67.0497C415.5 61.796 396.5 2.89514 339.5 13.4028C282.5 23.9105 325 81.1759 227 65.9402C129 50.7044 182 33.367 94 3.42068Z" fill="#2D6AB1"/>
<path d="M1114 3.42068C1026 -26.5256 1020 150 1020 150H1976C1976 150 1924.5 49.6534 1882.5 54.9073C1840.5 60.1612 1827 95.3611 1751 78.5491C1675 61.7372 1685.5 26.0706 1612 26.0706C1538.5 26.0706 1563.5 72.3034 1499.5 67.0497C1435.5 61.796 1416.5 2.89514 1359.5 13.4028C1302.5 23.9105 1345 81.1759 1247 65.9402C1149 50.7044 1202 33.367 1114 3.42068Z" fill="#2D6AB1"/>
<path d="M668 3.42068C580 -26.5256 574 150 574 150H1530C1530 150 1478.5 49.6534 1436.5 54.9073C1394.5 60.1612 1381 95.3611 1305 78.5491C1229 61.7372 1239.5 26.0706 1166 26.0706C1092.5 26.0706 1117.5 72.3034 1053.5 67.0497C989.5 61.796 970.5 2.89514 913.5 13.4028C856.5 23.9105 899 81.1759 801 65.9402C703 50.7044 756 33.367 668 3.42068Z" fill="#2D6AB1"/>
<path d="M1688 3.42068C1600 -26.5256 1594 150 1594 150H2550C2550 150 2498.5 49.6534 2456.5 54.9073C2414.5 60.1612 2401 95.3611 2325 78.5491C2249 61.7372 2259.5 26.0706 2186 26.0706C2112.5 26.0706 2137.5 72.3034 2073.5 67.0497C2009.5 61.796 1990.5 2.89514 1933.5 13.4028C1876.5 23.9105 1919 81.1759 1821 65.9402C1723 50.7044 1776 33.367 1688 3.42068Z" fill="#2D6AB1"/>
</svg>
